<?xml version="1.0" encoding="UTF-8"?>
<svg xmlns="http://www.w3.org/2000/svg" viewBox="0 0 1100 720" role="img" aria-labelledby="title desc" font-family="Inter, -apple-system, Segoe UI, Roboto, sans-serif">
  <title id="title">OpenApparatus Studio — annotated window layout</title>
  <desc id="desc">Annotated diagram of the Studio main window: title bar, menu, action bar, settings strip, three-pane body, and status bar.</desc>

  <defs>
    <radialGradient id="bg" cx="50%" cy="40%" r="65%">
      <stop offset="0%"   stop-color="#ecfdf5"/>
      <stop offset="100%" stop-color="#d1fae5"/>
    </radialGradient>
    <linearGradient id="canvasFill" x1="0" y1="0" x2="0" y2="1">
      <stop offset="0%" stop-color="#f0fdfa"/>
      <stop offset="100%" stop-color="#ecfdf5"/>
    </linearGradient>
    <pattern id="grid" width="22" height="22" patternUnits="userSpaceOnUse">
      <path d="M 22 0 L 0 0 0 22" fill="none" stroke="rgba(6,95,70,0.07)" stroke-width="1"/>
    </pattern>
  </defs>

  <style>
    .label       { font-size: 12px; fill: #064e3b; font-weight: 600; letter-spacing: 0.04em; }
    .caption     { font-size: 10.5px; fill: rgba(6,95,70,0.75); }
    .leader      { stroke: rgba(6,95,70,0.5); stroke-width: 1; fill: none; stroke-dasharray: 2 3; }
    .panel-title { font-size: 9.5px; fill: #064e3b; font-weight: 700; letter-spacing: 0.10em; text-transform: uppercase; }
    .row-label   { font-size: 9.5px; fill: rgba(6,95,70,0.85); }
    .row-value   { font-size: 9.5px; fill: #064e3b; font-weight: 600; }
    .menu-item   { font-size: 10px; fill: #064e3b; }
    .brand       { font-size: 10px; fill: #064e3b; font-weight: 600; }
    .project     { font-size: 10px; fill: rgba(6,95,70,0.7); }
    .sectionCap  { font-size: 8.5px; fill: rgba(6,95,70,0.55); font-weight: 700; letter-spacing: 0.18em; }
    .pillText    { font-size: 9px; font-weight: 700; letter-spacing: 0.06em; }
    .status      { font-size: 10px; fill: #064e3b; font-family: 'Space Mono', Consolas, monospace; }
    .accent-dot  { fill: #10b981; }
    .kbd         { font-size: 8px; fill: #ffffff; font-weight: 700; }
    .kbdGhost    { font-size: 8px; fill: #064e3b; font-weight: 700; }
  </style>

  <rect width="1100" height="720" fill="url(#bg)"/>

  <!-- =========================== Window =========================== -->
  <g transform="translate(60,40)">
    <rect x="0" y="0" width="980" height="610" rx="6" ry="6" fill="#ffffff" stroke="rgba(52,211,153,0.45)"/>
    <rect x="-4" y="-4" width="988" height="618" rx="9" ry="9" fill="none" stroke="rgba(4,120,87,0.06)" stroke-width="6"/>

    <!-- Title bar -->
    <rect x="0" y="0" width="980" height="26" rx="6" ry="6" fill="#fafafa" stroke="rgba(52,211,153,0.35)"/>
    <rect x="0" y="20" width="980" height="6" fill="#fafafa"/>
    <circle cx="14" cy="13" r="4" fill="#fb7185"/>
    <circle cx="28" cy="13" r="4" fill="#fbbf24"/>
    <circle cx="42" cy="13" r="4" fill="#34d399"/>
    <text x="490" y="17" text-anchor="middle" font-size="10" fill="rgba(6,95,70,0.7)" font-weight="600">OpenApparatus Studio  —  open-field-arena.oapp</text>

    <!-- Menu bar -->
    <g transform="translate(0,26)">
      <rect x="0" y="0" width="980" height="22" fill="#ffffff" stroke="rgba(52,211,153,0.25)"/>
      <text x="14"  y="15" class="menu-item">File</text>
      <text x="42"  y="15" class="menu-item">Edit</text>
      <text x="70"  y="15" class="menu-item">View</text>
      <text x="100" y="15" class="menu-item">Help</text>
    </g>

    <!-- Action bar -->
    <g transform="translate(0,48)">
      <rect x="0" y="0" width="980" height="36" fill="rgba(244,253,250,0.85)" stroke="rgba(52,211,153,0.3)"/>
      <!-- Brand cluster left -->
      <circle cx="16" cy="18" r="4" fill="#10b981"/>
      <text x="28"  y="21" class="brand">OpenApparatus Studio</text>
      <text x="138" y="21" font-size="10" fill="rgba(6,95,70,0.5)">·</text>
      <text x="146" y="21" class="project">open-field-arena</text>

      <!-- Right cluster -->
      <g transform="translate(740,7)">
        <!-- Undo -->
        <rect x="0" y="0" width="22" height="22" rx="4" fill="#ffffff" stroke="rgba(52,211,153,0.4)"/>
        <path d="M 6 12 L 11 9 V 11 H 14 A 3 3 0 0 1 14 17 H 11" fill="none" stroke="#064e3b" stroke-width="1.4" stroke-linecap="round" stroke-linejoin="round"/>
        <!-- Redo -->
        <rect x="26" y="0" width="22" height="22" rx="4" fill="#ffffff" stroke="rgba(52,211,153,0.4)"/>
        <path d="M 42 12 L 37 9 V 11 H 34 A 3 3 0 0 0 34 17 H 37" fill="none" stroke="#064e3b" stroke-width="1.4" stroke-linecap="round" stroke-linejoin="round"/>
        <!-- separator -->
        <line x1="56" y1="3" x2="56" y2="19" stroke="rgba(52,211,153,0.4)"/>
        <!-- Auto-layout -->
        <rect x="62" y="0" width="74" height="22" rx="4" fill="#ffffff" stroke="rgba(52,211,153,0.4)"/>
        <text x="99" y="14.5" text-anchor="middle" font-size="9.5" fill="#064e3b" font-weight="600">Auto-layout</text>
        <!-- separator -->
        <line x1="146" y1="3" x2="146" y2="19" stroke="rgba(52,211,153,0.4)"/>
        <!-- Export (filled primary) -->
        <rect x="152" y="0" width="80" height="22" rx="4" fill="#10b981"/>
        <path d="M 158 11 L 162 11 L 160 8 Z M 158 12 L 162 12 L 160 15 Z" fill="#ffffff"/>
        <text x="186" y="14.5" text-anchor="middle" font-size="9.5" fill="#ffffff" font-weight="700">Export</text>
        <path d="M 218 9 L 222 13 L 226 9" fill="none" stroke="#ffffff" stroke-width="1.3" stroke-linecap="round" stroke-linejoin="round"/>
      </g>
    </g>

    <!-- Settings strip -->
    <g transform="translate(0,84)">
      <rect x="0" y="0" width="980" height="40" fill="#ffffff" stroke="rgba(52,211,153,0.25)"/>

      <!-- VIEW -->
      <text x="14" y="14" class="sectionCap">VIEW</text>
      <g transform="translate(14,18)">
        <rect x="0"  y="0" width="32" height="18" rx="9" fill="#10b981"/>
        <text x="16" y="12" text-anchor="middle" class="pillText" fill="#ffffff">2D</text>
        <rect x="34" y="0" width="32" height="18" rx="9" fill="#ffffff" stroke="rgba(52,211,153,0.4)"/>
        <text x="50" y="12" text-anchor="middle" class="pillText" fill="#064e3b">3D</text>
      </g>
      <line x1="100" y1="6" x2="100" y2="34" stroke="rgba(52,211,153,0.35)"/>

      <!-- SURFACE -->
      <text x="112" y="14" class="sectionCap">SURFACE</text>
      <g transform="translate(112,18)">
        <rect x="0"  y="0" width="38" height="18" rx="9" fill="#10b981"/>
        <text x="19" y="12" text-anchor="middle" class="pillText" fill="#ffffff">FLOOR</text>
        <rect x="40" y="0" width="46" height="18" rx="9" fill="#ffffff" stroke="rgba(52,211,153,0.4)"/>
        <text x="63" y="12" text-anchor="middle" class="pillText" fill="#064e3b">CEILING</text>
        <text x="92" y="12" font-size="8.5" fill="rgba(6,95,70,0.65)">Saturation</text>
        <rect x="138" y="6" width="60" height="3" rx="1.5" fill="rgba(52,211,153,0.3)"/>
        <rect x="138" y="6" width="40" height="3" rx="1.5" fill="#10b981"/>
        <circle cx="178" cy="7.5" r="3" fill="#ffffff" stroke="#10b981"/>
      </g>
      <line x1="320" y1="6" x2="320" y2="34" stroke="rgba(52,211,153,0.35)"/>

      <!-- OVERLAY -->
      <text x="332" y="14" class="sectionCap">OVERLAY</text>
      <g transform="translate(332,18)">
        <rect x="0"  y="0" width="40" height="18" rx="9" fill="#10b981"/>
        <text x="20" y="12" text-anchor="middle" class="pillText" fill="#ffffff">WALLS</text>
        <rect x="44" y="0" width="44" height="18" rx="9" fill="#ffffff" stroke="rgba(52,211,153,0.4)"/>
        <text x="66" y="12" text-anchor="middle" class="pillText" fill="#064e3b">ROOMS</text>
        <text x="94" y="12" font-size="8.5" fill="rgba(6,95,70,0.65)">Opacity</text>
        <rect x="128" y="6" width="50" height="3" rx="1.5" fill="rgba(52,211,153,0.3)"/>
        <rect x="128" y="6" width="22" height="3" rx="1.5" fill="#10b981"/>
        <circle cx="150" cy="7.5" r="3" fill="#ffffff" stroke="#10b981"/>
      </g>
      <line x1="514" y1="6" x2="514" y2="34" stroke="rgba(52,211,153,0.35)"/>

      <!-- ROOM -->
      <text x="526" y="14" class="sectionCap">ROOM</text>
      <g transform="translate(526,18)">
        <rect x="0"  y="0" width="62" height="18" rx="9" fill="#ffffff" stroke="rgba(52,211,153,0.4)"/>
        <text x="31" y="12" text-anchor="middle" class="pillText" fill="#064e3b">DIMENSIONS</text>
        <rect x="66" y="0" width="36" height="18" rx="9" fill="#10b981"/>
        <text x="84" y="12" text-anchor="middle" class="pillText" fill="#ffffff">AREA</text>
        <rect x="106" y="0" width="64" height="18" rx="9" fill="#ffffff" stroke="rgba(52,211,153,0.4)"/>
        <text x="138" y="12" text-anchor="middle" class="pillText" fill="#064e3b">DOOR/WIN.</text>
      </g>
      <line x1="704" y1="6" x2="704" y2="34" stroke="rgba(52,211,153,0.35)"/>

      <!-- OBJECT -->
      <text x="716" y="14" class="sectionCap">OBJECT</text>
      <g transform="translate(716,18)">
        <rect x="0"  y="0" width="60" height="18" rx="9" fill="#ffffff" stroke="rgba(52,211,153,0.4)"/>
        <text x="30" y="12" text-anchor="middle" class="pillText" fill="#064e3b">DISTANCES</text>
        <rect x="64" y="0" width="74" height="18" rx="9" fill="#ffffff" stroke="rgba(52,211,153,0.4)"/>
        <text x="101" y="12" text-anchor="middle" class="pillText" fill="#064e3b">DOOR ANGLES</text>
      </g>
      <line x1="864" y1="6" x2="864" y2="34" stroke="rgba(52,211,153,0.35)"/>

      <!-- PATHS -->
      <text x="876" y="14" class="sectionCap">PATHS</text>
      <g transform="translate(876,18)">
        <rect x="0" y="0" width="32" height="18" rx="9" fill="#10b981"/>
        <text x="16" y="12" text-anchor="middle" class="pillText" fill="#ffffff">PATH</text>
        <!-- swatch -->
        <rect x="36" y="0" width="18" height="18" rx="3" fill="#34d399" stroke="rgba(52,211,153,0.5)"/>
        <text x="50" y="16" font-size="8" font-weight="700" fill="#064e3b">…</text>
        <!-- play -->
        <rect x="58" y="0" width="20" height="18" rx="3" fill="#10b981"/>
        <polygon points="65,5 65,13 71,9" fill="#ffffff"/>
      </g>
    </g>

    <!-- =========================== Body =========================== -->
    <g transform="translate(0,124)">

      <!-- Left panel -->
      <g>
        <rect x="0" y="0" width="240" height="430" fill="#fafefb" stroke="rgba(52,211,153,0.25)"/>

        <!-- Selection -->
        <text x="14" y="22" class="panel-title">Selection</text>
        <rect x="14" y="28" width="212" height="78" rx="4" fill="#ffffff" stroke="rgba(52,211,153,0.4)"/>
        <!-- Create Room button -->
        <rect x="22" y="36" width="196" height="24" rx="3" fill="#10b981"/>
        <text x="80" y="51" font-size="10" fill="#ffffff" font-weight="700">Create Room</text>
        <rect x="186" y="42" width="22" height="12" rx="2" fill="rgba(255,255,255,0.25)"/>
        <text x="197" y="51" text-anchor="middle" class="kbd">R</text>
        <text x="22" y="74" font-size="9" fill="rgba(6,95,70,0.7)">12 tile(s) selected</text>
        <!-- Clear selection -->
        <rect x="22" y="80" width="196" height="20" rx="3" fill="#ffffff" stroke="rgba(52,211,153,0.4)"/>
        <text x="98" y="93" font-size="9.5" fill="#064e3b" font-weight="600">Clear selection</text>
        <rect x="178" y="85" width="30" height="11" rx="2" fill="#ffffff" stroke="rgba(52,211,153,0.4)"/>
        <text x="193" y="93" text-anchor="middle" class="kbdGhost">Esc</text>

        <!-- New room defaults -->
        <text x="14" y="124" class="panel-title">New room defaults</text>
        <rect x="14" y="130" width="212" height="74" rx="4" fill="#ffffff" stroke="rgba(52,211,153,0.4)"/>
        <text x="22" y="148" class="row-label">Floor</text>
        <rect x="74" y="140" width="144" height="14" rx="3" fill="#a7f3d0" stroke="rgba(52,211,153,0.55)"/>
        <text x="22" y="170" class="row-label">Ceiling</text>
        <rect x="74" y="162" width="144" height="14" rx="3" fill="#ecfdf5" stroke="rgba(52,211,153,0.55)"/>
        <text x="22" y="192" class="row-label">Walls</text>
        <rect x="74" y="184" width="92" height="14" rx="3" fill="url(#canvasFill)" stroke="rgba(52,211,153,0.55)"/>
        <rect x="170" y="184" width="48" height="14" rx="7" fill="#ffffff" stroke="rgba(52,211,153,0.4)"/>
        <text x="194" y="194" text-anchor="middle" class="pillText" fill="#064e3b">PER ROOM</text>

        <!-- Project -->
        <text x="14" y="222" class="panel-title">Project</text>
        <rect x="14" y="228" width="212" height="194" rx="4" fill="#ffffff" stroke="rgba(52,211,153,0.4)"/>
        <text x="22" y="244" font-size="10" font-weight="700" fill="#064e3b">Grid</text>
        <text x="22" y="260" class="row-label">Width (tiles)</text>
        <rect x="100" y="252" width="118" height="14" rx="3" fill="#fcfdfd" stroke="rgba(52,211,153,0.4)"/>
        <text x="108" y="262" class="row-value">8</text>
        <line x1="186" y1="252" x2="186" y2="266" stroke="rgba(52,211,153,0.4)"/>
        <line x1="202" y1="252" x2="202" y2="266" stroke="rgba(52,211,153,0.4)"/>
        <text x="194" y="262" text-anchor="middle" font-size="11" fill="#064e3b" font-weight="600">−</text>
        <text x="210" y="262" text-anchor="middle" font-size="11" fill="#064e3b" font-weight="600">+</text>

        <text x="22" y="280" class="row-label">Depth (tiles)</text>
        <rect x="100" y="272" width="118" height="14" rx="3" fill="#fcfdfd" stroke="rgba(52,211,153,0.4)"/>
        <text x="108" y="282" class="row-value">6</text>
        <line x1="186" y1="272" x2="186" y2="286" stroke="rgba(52,211,153,0.4)"/>
        <line x1="202" y1="272" x2="202" y2="286" stroke="rgba(52,211,153,0.4)"/>
        <text x="194" y="282" text-anchor="middle" font-size="11" fill="#064e3b" font-weight="600">−</text>
        <text x="210" y="282" text-anchor="middle" font-size="11" fill="#064e3b" font-weight="600">+</text>

        <text x="22" y="300" class="row-label">Tile size (m)</text>
        <rect x="100" y="292" width="118" height="14" rx="3" fill="#fcfdfd" stroke="rgba(52,211,153,0.4)"/>
        <text x="108" y="302" class="row-value">1.0</text>
        <line x1="186" y1="292" x2="186" y2="306" stroke="rgba(52,211,153,0.4)"/>
        <line x1="202" y1="292" x2="202" y2="306" stroke="rgba(52,211,153,0.4)"/>
        <text x="194" y="302" text-anchor="middle" font-size="11" fill="#064e3b" font-weight="600">−</text>
        <text x="210" y="302" text-anchor="middle" font-size="11" fill="#064e3b" font-weight="600">+</text>

        <line x1="22" y1="316" x2="218" y2="316" stroke="rgba(52,211,153,0.3)"/>
        <text x="22" y="332" font-size="10" font-weight="700" fill="#064e3b">Walls</text>
        <text x="22" y="348" class="row-label">Thickness (m)</text>
        <text x="218" y="348" text-anchor="end" class="row-value">0.10</text>
        <text x="22" y="364" class="row-label">Height (m)</text>
        <text x="218" y="364" text-anchor="end" class="row-value">2.50</text>

        <line x1="22" y1="374" x2="218" y2="374" stroke="rgba(52,211,153,0.3)"/>
        <text x="22" y="390" font-size="10" font-weight="700" fill="#064e3b">Constraints</text>
        <text x="22" y="406" class="row-label">Object → object</text>
        <rect x="190" y="398" width="22" height="11" rx="5.5" fill="#10b981"/>
        <circle cx="207" cy="403.5" r="4" fill="#ffffff"/>
      </g>

      <!-- Centre canvas -->
      <g transform="translate(240,0)">
        <rect x="0" y="0" width="500" height="430" fill="url(#canvasFill)" stroke="rgba(52,211,153,0.2)"/>
        <rect x="0" y="0" width="500" height="430" fill="url(#grid)"/>

        <!-- Sample two-room plan -->
        <!-- Room A (Start box, ~5×4 tiles) -->
        <rect x="60"  y="100" width="132" height="106" fill="rgba(110,231,183,0.45)"/>
        <rect x="60"  y="100" width="132" height="6" fill="#064e3b"/>
        <rect x="60"  y="200" width="132" height="6" fill="#064e3b"/>
        <rect x="60"  y="100" width="6"   height="106" fill="#064e3b"/>
        <rect x="186" y="100" width="6"   height="44" fill="#064e3b"/>
        <rect x="186" y="170" width="6"   height="36" fill="#064e3b"/>
        <path d="M 192 144 A 22 22 0 0 1 214 166" fill="none" stroke="rgba(6,95,70,0.6)" stroke-width="1"/>
        <line x1="192" y1="144" x2="214" y2="166" stroke="rgba(6,95,70,0.55)" stroke-width="1" stroke-dasharray="2 2"/>
        <text x="126" y="148" text-anchor="middle" font-size="11" fill="#064e3b" font-weight="700">Start box</text>
        <text x="126" y="164" text-anchor="middle" font-size="9" fill="rgba(6,95,70,0.75)">5 × 4 · 20 m²</text>

        <!-- Room B (Arena, ~6×4 tiles) -->
        <rect x="220" y="100" width="160" height="106" fill="rgba(167,243,208,0.5)"/>
        <rect x="220" y="100" width="160" height="6" fill="#064e3b"/>
        <rect x="220" y="200" width="160" height="6" fill="#064e3b"/>
        <rect x="220" y="100" width="6"   height="44" fill="#064e3b"/>
        <rect x="220" y="170" width="6"   height="36" fill="#064e3b"/>
        <rect x="374" y="100" width="6"   height="106" fill="#064e3b"/>

        <!-- Object -->
        <circle cx="298" cy="153" r="7" fill="#0d9488" stroke="#064e3b" stroke-width="0.6"/>
        <circle cx="298" cy="153" r="22" fill="none" stroke="rgba(13,148,136,0.4)" stroke-dasharray="3 3"/>
        <text x="298" y="184" text-anchor="middle" font-size="11" fill="#064e3b" font-weight="700">Arena</text>

        <!-- Cursor -->
        <g transform="translate(330,290)">
          <line x1="-7" y1="0" x2="7" y2="0" stroke="#10b981" stroke-width="1.5"/>
          <line x1="0" y1="-7" x2="0" y2="7" stroke="#10b981" stroke-width="1.5"/>
        </g>
      </g>

      <!-- Right panel — RoomEditorPanel -->
      <g transform="translate(740,0)">
        <rect x="0" y="0" width="240" height="430" fill="#fafefb" stroke="rgba(52,211,153,0.25)"/>

        <!-- Room appearance -->
        <text x="14" y="22" class="panel-title">Room appearance</text>
        <rect x="14" y="28" width="212" height="170" rx="4" fill="#ffffff" stroke="rgba(52,211,153,0.4)"/>
        <text x="22" y="44" class="row-label">Name</text>
        <rect x="74" y="36" width="144" height="14" rx="3" fill="#fcfdfd" stroke="rgba(52,211,153,0.4)"/>
        <text x="80" y="46" font-size="9" fill="#064e3b" font-weight="600">Start box</text>
        <text x="22" y="66" class="row-label">Floor</text>
        <rect x="74" y="58" width="144" height="14" rx="3" fill="#a7f3d0" stroke="rgba(52,211,153,0.55)"/>
        <text x="22" y="88" class="row-label">Ceiling</text>
        <rect x="74" y="80" width="144" height="14" rx="3" fill="#ecfdf5" stroke="rgba(52,211,153,0.55)"/>

        <line x1="22" y1="106" x2="218" y2="106" stroke="rgba(52,211,153,0.3)"/>
        <text x="22" y="122" font-size="10" font-weight="700" fill="#064e3b">Walls</text>
        <text x="22" y="138" class="row-label">Single colour</text>
        <rect x="190" y="130" width="28" height="11" rx="5.5" fill="#10b981"/>
        <circle cx="212" cy="135.5" r="4" fill="#ffffff"/>
        <text x="22" y="158" class="row-label">North</text>
        <rect x="180" y="150" width="38" height="11" rx="2" fill="#6ee7b7" stroke="rgba(52,211,153,0.55)"/>
        <text x="22" y="176" class="row-label">East</text>
        <rect x="180" y="168" width="38" height="11" rx="2" fill="#6ee7b7" stroke="rgba(52,211,153,0.55)"/>
        <text x="22" y="194" class="row-label">South</text>
        <rect x="180" y="186" width="38" height="11" rx="2" fill="#6ee7b7" stroke="rgba(52,211,153,0.55)"/>

        <!-- Opening editor -->
        <text x="14" y="216" class="panel-title">Opening · door</text>
        <rect x="14" y="222" width="212" height="180" rx="4" fill="#ffffff" stroke="rgba(52,211,153,0.4)"/>
        <text x="22" y="240" class="row-label">Offset (m)</text>
        <rect x="100" y="232" width="118" height="14" rx="3" fill="#fcfdfd" stroke="rgba(52,211,153,0.4)"/>
        <text x="108" y="242" class="row-value">1.20</text>
        <line x1="186" y1="232" x2="186" y2="246" stroke="rgba(52,211,153,0.4)"/>
        <line x1="202" y1="232" x2="202" y2="246" stroke="rgba(52,211,153,0.4)"/>
        <text x="194" y="242" text-anchor="middle" font-size="11" fill="#064e3b" font-weight="600">−</text>
        <text x="210" y="242" text-anchor="middle" font-size="11" fill="#064e3b" font-weight="600">+</text>

        <text x="22" y="260" class="row-label">Width (m)</text>
        <rect x="100" y="252" width="118" height="14" rx="3" fill="#fcfdfd" stroke="rgba(52,211,153,0.4)"/>
        <text x="108" y="262" class="row-value">0.90</text>
        <line x1="186" y1="252" x2="186" y2="266" stroke="rgba(52,211,153,0.4)"/>
        <line x1="202" y1="252" x2="202" y2="266" stroke="rgba(52,211,153,0.4)"/>
        <text x="194" y="262" text-anchor="middle" font-size="11" fill="#064e3b" font-weight="600">−</text>
        <text x="210" y="262" text-anchor="middle" font-size="11" fill="#064e3b" font-weight="600">+</text>

        <text x="22" y="280" class="row-label">Height (m)</text>
        <rect x="100" y="272" width="118" height="14" rx="3" fill="#fcfdfd" stroke="rgba(52,211,153,0.4)"/>
        <text x="108" y="282" class="row-value">2.00</text>
        <line x1="186" y1="272" x2="186" y2="286" stroke="rgba(52,211,153,0.4)"/>
        <line x1="202" y1="272" x2="202" y2="286" stroke="rgba(52,211,153,0.4)"/>
        <text x="194" y="282" text-anchor="middle" font-size="11" fill="#064e3b" font-weight="600">−</text>
        <text x="210" y="282" text-anchor="middle" font-size="11" fill="#064e3b" font-weight="600">+</text>

        <text x="22" y="304" class="row-label">Hinge</text>
        <rect x="100" y="296" width="56" height="14" rx="7" fill="#10b981"/>
        <text x="128" y="306" text-anchor="middle" class="pillText" fill="#ffffff">LEFT</text>
        <rect x="160" y="296" width="58" height="14" rx="7" fill="#ffffff" stroke="rgba(52,211,153,0.4)"/>
        <text x="189" y="306" text-anchor="middle" class="pillText" fill="#064e3b">RIGHT</text>

        <text x="22" y="326" class="row-label">Swing</text>
        <rect x="100" y="318" width="56" height="14" rx="7" fill="#ffffff" stroke="rgba(52,211,153,0.4)"/>
        <text x="128" y="328" text-anchor="middle" class="pillText" fill="#064e3b">−</text>
        <rect x="160" y="318" width="58" height="14" rx="7" fill="#10b981"/>
        <text x="189" y="328" text-anchor="middle" class="pillText" fill="#ffffff">+</text>
      </g>

    </g>

    <!-- Status bar -->
    <g transform="translate(0,554)">
      <rect x="0" y="0" width="980" height="28" fill="#fafefb" stroke="rgba(52,211,153,0.25)"/>
      <!-- column ratios *, 2*, * → cursor at left, status at center, summary at right -->
      <text x="14" y="18" class="status">5.42, 3.18</text>
      <circle cx="441" cy="14" r="3" class="accent-dot"/>
      <text x="450" y="18" class="status">Wall opened</text>
      <text x="966" y="18" text-anchor="end" class="status">2 rooms · 1 object · Layout</text>
    </g>

  </g>

  <!-- =========================== Callouts =========================== -->
  <g>
    <path class="leader" d="M 60 50 L 30 50"/>
    <text x="28" y="44" text-anchor="end" class="label">TITLE BAR</text>
    <text x="28" y="58" text-anchor="end" class="caption">project file shown</text>

    <path class="leader" d="M 60 76 L 30 76"/>
    <text x="28" y="80" text-anchor="end" class="label">MENU</text>

    <path class="leader" d="M 1040 102 L 1070 102"/>
    <text x="1072" y="98" class="label">ACTION BAR</text>
    <text x="1072" y="111" class="caption">Undo · Redo · Auto-layout</text>
    <text x="1072" y="123" class="caption">· Export ▾</text>

    <path class="leader" d="M 60 144 L 30 144"/>
    <text x="28" y="138" text-anchor="end" class="label">SETTINGS</text>
    <text x="28" y="151" text-anchor="end" class="caption">VIEW · SURFACE · OVERLAY</text>
    <text x="28" y="163" text-anchor="end" class="caption">ROOM · OBJECT · PATHS</text>

    <path class="leader" d="M 60 320 L 30 320"/>
    <text x="28" y="314" text-anchor="end" class="label">LEFT PANEL</text>
    <text x="28" y="327" text-anchor="end" class="caption">Selection · Defaults</text>
    <text x="28" y="339" text-anchor="end" class="caption">Project · Constraints</text>

    <path class="leader" d="M 1040 320 L 1070 320"/>
    <text x="1072" y="314" class="label">RIGHT PANEL</text>
    <text x="1072" y="327" class="caption">Room appearance</text>
    <text x="1072" y="339" class="caption">Opening editor</text>

    <path class="leader" d="M 550 660 L 550 644"/>
    <text x="550" y="675" text-anchor="middle" class="label">CANVAS — 2D top-down or 3D iso</text>
    <text x="550" y="689" text-anchor="middle" class="caption">tile painting · room / wall / opening selection · object placement</text>

    <path class="leader" d="M 60 670 L 30 670"/>
    <text x="28" y="664" text-anchor="end" class="label">STATUS BAR</text>
    <text x="28" y="677" text-anchor="end" class="caption">cursor · status · scene</text>
  </g>
</svg>
